<?xml version="1.0" encoding="UTF-8"?>
<svg id="Layer_2" data-name="Layer 2" xmlns="http://www.w3.org/2000/svg" viewBox="0 0 114.4 97.35">
  <defs>
    <style>
      .cls-1 {
        fill: none;
        stroke: #a2948b;
        stroke-miterlimit: 10;
        stroke-width: 2.35px;
      }
    </style>
  </defs>
  <g id="Layer_1-2" data-name="Layer 1">
    <g>
      <ellipse class="cls-1" cx="79.12" cy="13.35" rx="34.1" ry="12.18"/>
      <path class="cls-1" d="M113.23,13.35v12.18c0,6.73-15.27,12.18-34.1,12.18-3.79,0-7.44-.22-10.85-.63"/>
      <path class="cls-1" d="M110.38,30.41c1.83,1.49,2.84,3.14,2.84,4.88v2.44c0,6.73-15.27,12.18-34.1,12.18-1.55,0-3.08-.04-4.57-.11"/>
      <path class="cls-1" d="M110.38,42.59c1.83,1.49,2.84,3.14,2.84,4.88v2.44c0,6.73-15.27,12.18-34.1,12.18-.89,0-1.77-.01-2.64-.04"/>
      <path class="cls-1" d="M110.38,54.77c1.83,1.49,2.84,3.14,2.84,4.88v2.44c0,6.73-15.27,12.18-34.1,12.18-1.41,0-2.8-.03-4.16-.09"/>
      <path class="cls-1" d="M110.38,66.94c1.83,1.49,2.84,3.14,2.84,4.88v2.44c0,6.73-15.27,12.18-34.1,12.18-3.62,0-7.12-.2-10.4-.58"/>
      <circle class="cls-1" cx="35.28" cy="62.07" r="34.1"/>
      <path class="cls-1" d="M27.97,69.38v2.44c0,2.69,2.18,4.87,4.87,4.87h4.87c2.69,0,4.87-2.18,4.87-4.87v-3.8c0-2.1-1.34-3.96-3.33-4.62l-7.95-2.65c-1.99-.66-3.33-2.52-3.33-4.62v-1.36c0-2.69,2.18-4.87,4.87-4.87h4.87c2.69,0,4.87,2.18,4.87,4.87v2.44"/>
      <line class="cls-1" x1="35.28" y1="49.89" x2="35.28" y2="42.59"/>
      <line class="cls-1" x1="35.28" y1="76.69" x2="35.28" y2="84"/>
      <line class="cls-1" x1="45.02" y1="13.35" x2="45.02" y2="20.66"/>
    </g>
  </g>
</svg>