<?xml version="1.0" encoding="UTF-8"?>
<svg id="Layer_2" data-name="Layer 2" xmlns="http://www.w3.org/2000/svg" xmlns:xlink="http://www.w3.org/1999/xlink" viewBox="0 0 1897.75 110.38">
  <defs>
    <style>
      .cls-1 {
        stroke-width: 0px;
      }

      .cls-1, .cls-2 {
        fill: none;
      }

      .cls-3 {
        clip-path: url(#clippath);
      }

      .cls-2 {
        stroke: #a2948b;
        stroke-miterlimit: 10;
        stroke-width: 2.29px;
      }
    </style>
    <clipPath id="clippath">
      <rect class="cls-1" width="1897.75" height="110.38"/>
    </clipPath>
  </defs>
  <g id="Layer_1-2" data-name="Layer 1">
    <g class="cls-3">
      <g>
        <g id="_Grid_Repeat_" data-name="&amp;lt;Grid Repeat&amp;gt;">
          <line class="cls-2" x1="196.49" y1="48.82" x2="196.49" y2="84.45"/>
          <line class="cls-2" x1="225.9" y1="53.29" x2="225.9" y2="84.45"/>
          <line class="cls-2" x1="211.08" y1="32.49" x2="211.08" y2="84.45"/>
          <polyline class="cls-2" points="225.9 46.47 225.9 23.2 244.6 18.66 245.55 84.45"/>
          <line class="cls-2" x1="180.78" y1="23.73" x2="180.78" y2="84.45"/>
          <line class="cls-2" x1="151.37" y1="53.29" x2="151.37" y2="84.45"/>
          <line class="cls-2" x1="166.19" y1="38.35" x2="166.19" y2="84.45"/>
          <polyline class="cls-2" points="151.37 46.47 151.37 23.2 132.67 18.66 131.71 84.45"/>
          <line class="cls-2" x1="65.83" y1="48.82" x2="65.83" y2="84.45"/>
          <line class="cls-2" x1="95.24" y1="53.29" x2="95.24" y2="84.45"/>
          <line class="cls-2" x1="80.43" y1="32.49" x2="80.43" y2="84.45"/>
          <polyline class="cls-2" points="95.24 46.47 95.24 23.2 113.95 18.66 114.9 84.45"/>
          <line class="cls-2" x1="50.13" y1="23.73" x2="50.13" y2="84.45"/>
          <line class="cls-2" x1="20.72" y1="53.29" x2="20.72" y2="84.45"/>
          <line class="cls-2" x1="35.54" y1="38.35" x2="35.54" y2="84.45"/>
          <polyline class="cls-2" points="20.72 46.47 20.72 23.2 2.02 18.66 1.06 84.45"/>
        </g>
        <g id="_Grid_Repeat_-2" data-name="&amp;lt;Grid Repeat&amp;gt;">
          <line class="cls-2" x1="456.59" y1="48.82" x2="456.59" y2="84.45"/>
          <line class="cls-2" x1="486" y1="53.29" x2="486" y2="84.45"/>
          <line class="cls-2" x1="471.19" y1="32.49" x2="471.19" y2="84.45"/>
          <polyline class="cls-2" points="486 46.47 486 23.2 504.71 18.66 505.66 84.45"/>
          <line class="cls-2" x1="440.89" y1="23.73" x2="440.89" y2="84.45"/>
          <line class="cls-2" x1="411.48" y1="53.29" x2="411.48" y2="84.45"/>
          <line class="cls-2" x1="426.3" y1="38.35" x2="426.3" y2="84.45"/>
          <polyline class="cls-2" points="411.48 46.47 411.48 23.2 392.78 18.66 391.82 84.45"/>
          <line class="cls-2" x1="325.94" y1="48.82" x2="325.94" y2="84.45"/>
          <line class="cls-2" x1="355.35" y1="53.29" x2="355.35" y2="84.45"/>
          <line class="cls-2" x1="340.54" y1="32.49" x2="340.54" y2="84.45"/>
          <polyline class="cls-2" points="355.35 46.47 355.35 23.2 374.05 18.66 375.01 84.45"/>
          <line class="cls-2" x1="310.24" y1="23.73" x2="310.24" y2="84.45"/>
          <line class="cls-2" x1="280.83" y1="53.29" x2="280.83" y2="84.45"/>
          <line class="cls-2" x1="295.64" y1="38.35" x2="295.64" y2="84.45"/>
          <polyline class="cls-2" points="280.83 46.47 280.83 23.2 262.13 18.66 261.17 84.45"/>
        </g>
        <g id="_Grid_Repeat_-3" data-name="&amp;lt;Grid Repeat&amp;gt;">
          <line class="cls-2" x1="716.7" y1="48.82" x2="716.7" y2="84.45"/>
          <line class="cls-2" x1="746.11" y1="53.29" x2="746.11" y2="84.45"/>
          <line class="cls-2" x1="731.3" y1="32.49" x2="731.3" y2="84.45"/>
          <polyline class="cls-2" points="746.11 46.47 746.11 23.2 764.81 18.66 765.77 84.45"/>
          <line class="cls-2" x1="701" y1="23.73" x2="701" y2="84.45"/>
          <line class="cls-2" x1="671.59" y1="53.29" x2="671.59" y2="84.45"/>
          <line class="cls-2" x1="686.4" y1="38.35" x2="686.4" y2="84.45"/>
          <polyline class="cls-2" points="671.59 46.47 671.59 23.2 652.89 18.66 651.93 84.45"/>
          <line class="cls-2" x1="586.05" y1="48.82" x2="586.05" y2="84.45"/>
          <line class="cls-2" x1="615.46" y1="53.29" x2="615.46" y2="84.45"/>
          <line class="cls-2" x1="600.64" y1="32.49" x2="600.64" y2="84.45"/>
          <polyline class="cls-2" points="615.46 46.47 615.46 23.2 634.16 18.66 635.12 84.45"/>
          <line class="cls-2" x1="570.35" y1="23.73" x2="570.35" y2="84.45"/>
          <line class="cls-2" x1="540.94" y1="53.29" x2="540.94" y2="84.45"/>
          <line class="cls-2" x1="555.75" y1="38.35" x2="555.75" y2="84.45"/>
          <polyline class="cls-2" points="540.94 46.47 540.94 23.2 522.23 18.66 521.28 84.45"/>
        </g>
        <g id="_Grid_Repeat_-4" data-name="&amp;lt;Grid Repeat&amp;gt;">
          <line class="cls-2" x1="976.81" y1="48.82" x2="976.81" y2="84.45"/>
          <line class="cls-2" x1="1006.22" y1="53.29" x2="1006.22" y2="84.45"/>
          <line class="cls-2" x1="991.4" y1="32.49" x2="991.4" y2="84.45"/>
          <polyline class="cls-2" points="1006.22 46.47 1006.22 23.2 1024.92 18.66 1025.88 84.45"/>
          <line class="cls-2" x1="961.11" y1="23.73" x2="961.11" y2="84.45"/>
          <line class="cls-2" x1="931.7" y1="53.29" x2="931.7" y2="84.45"/>
          <line class="cls-2" x1="946.51" y1="38.35" x2="946.51" y2="84.45"/>
          <polyline class="cls-2" points="931.7 46.47 931.7 23.2 912.99 18.66 912.04 84.45"/>
          <line class="cls-2" x1="846.16" y1="48.82" x2="846.16" y2="84.45"/>
          <line class="cls-2" x1="875.57" y1="53.29" x2="875.57" y2="84.45"/>
          <line class="cls-2" x1="860.75" y1="32.49" x2="860.75" y2="84.45"/>
          <polyline class="cls-2" points="875.57 46.47 875.57 23.2 894.27 18.66 895.23 84.45"/>
          <line class="cls-2" x1="830.45" y1="23.73" x2="830.45" y2="84.45"/>
          <line class="cls-2" x1="801.04" y1="53.29" x2="801.04" y2="84.45"/>
          <line class="cls-2" x1="815.86" y1="38.35" x2="815.86" y2="84.45"/>
          <polyline class="cls-2" points="801.04 46.47 801.04 23.2 782.34 18.66 781.39 84.45"/>
        </g>
        <g id="_Grid_Repeat_-5" data-name="&amp;lt;Grid Repeat&amp;gt;">
          <line class="cls-2" x1="1236.92" y1="48.82" x2="1236.92" y2="84.45"/>
          <line class="cls-2" x1="1266.33" y1="53.29" x2="1266.33" y2="84.45"/>
          <line class="cls-2" x1="1251.51" y1="32.49" x2="1251.51" y2="84.45"/>
          <polyline class="cls-2" points="1266.33 46.47 1266.33 23.2 1285.03 18.66 1285.98 84.45"/>
          <line class="cls-2" x1="1221.21" y1="23.73" x2="1221.21" y2="84.45"/>
          <line class="cls-2" x1="1191.8" y1="53.29" x2="1191.8" y2="84.45"/>
          <line class="cls-2" x1="1206.62" y1="38.35" x2="1206.62" y2="84.45"/>
          <polyline class="cls-2" points="1191.8 46.47 1191.8 23.2 1173.1 18.66 1172.14 84.45"/>
          <line class="cls-2" x1="1106.26" y1="48.82" x2="1106.26" y2="84.45"/>
          <line class="cls-2" x1="1135.67" y1="53.29" x2="1135.67" y2="84.45"/>
          <line class="cls-2" x1="1120.86" y1="32.49" x2="1120.86" y2="84.45"/>
          <polyline class="cls-2" points="1135.67 46.47 1135.67 23.2 1154.38 18.66 1155.33 84.45"/>
          <line class="cls-2" x1="1090.56" y1="23.73" x2="1090.56" y2="84.45"/>
          <line class="cls-2" x1="1061.15" y1="53.29" x2="1061.15" y2="84.45"/>
          <line class="cls-2" x1="1075.97" y1="38.35" x2="1075.97" y2="84.45"/>
          <polyline class="cls-2" points="1061.15 46.47 1061.15 23.2 1042.45 18.66 1041.49 84.45"/>
        </g>
        <g id="_Grid_Repeat_-6" data-name="&amp;lt;Grid Repeat&amp;gt;">
          <line class="cls-2" x1="1497.02" y1="48.82" x2="1497.02" y2="84.45"/>
          <line class="cls-2" x1="1526.43" y1="53.29" x2="1526.43" y2="84.45"/>
          <line class="cls-2" x1="1511.62" y1="32.49" x2="1511.62" y2="84.45"/>
          <polyline class="cls-2" points="1526.43 46.47 1526.43 23.2 1545.14 18.66 1546.09 84.45"/>
          <line class="cls-2" x1="1481.32" y1="23.73" x2="1481.32" y2="84.45"/>
          <line class="cls-2" x1="1451.91" y1="53.29" x2="1451.91" y2="84.45"/>
          <line class="cls-2" x1="1466.73" y1="38.35" x2="1466.73" y2="84.45"/>
          <polyline class="cls-2" points="1451.91 46.47 1451.91 23.2 1433.21 18.66 1432.25 84.45"/>
          <line class="cls-2" x1="1366.37" y1="48.82" x2="1366.37" y2="84.45"/>
          <line class="cls-2" x1="1395.78" y1="53.29" x2="1395.78" y2="84.45"/>
          <line class="cls-2" x1="1380.97" y1="32.49" x2="1380.97" y2="84.45"/>
          <polyline class="cls-2" points="1395.78 46.47 1395.78 23.2 1414.48 18.66 1415.44 84.45"/>
          <line class="cls-2" x1="1350.67" y1="23.73" x2="1350.67" y2="84.45"/>
          <line class="cls-2" x1="1321.26" y1="53.29" x2="1321.26" y2="84.45"/>
          <line class="cls-2" x1="1336.07" y1="38.35" x2="1336.07" y2="84.45"/>
          <polyline class="cls-2" points="1321.26 46.47 1321.26 23.2 1302.56 18.66 1301.6 84.45"/>
        </g>
        <g id="_Grid_Repeat_-7" data-name="&amp;lt;Grid Repeat&amp;gt;">
          <line class="cls-2" x1="1757.13" y1="48.82" x2="1757.13" y2="84.45"/>
          <line class="cls-2" x1="1786.54" y1="53.29" x2="1786.54" y2="84.45"/>
          <line class="cls-2" x1="1771.73" y1="32.49" x2="1771.73" y2="84.45"/>
          <polyline class="cls-2" points="1786.54 46.47 1786.54 23.2 1805.24 18.66 1806.2 84.45"/>
          <line class="cls-2" x1="1741.43" y1="23.73" x2="1741.43" y2="84.45"/>
          <line class="cls-2" x1="1712.02" y1="53.29" x2="1712.02" y2="84.45"/>
          <line class="cls-2" x1="1726.83" y1="38.35" x2="1726.83" y2="84.45"/>
          <polyline class="cls-2" points="1712.02 46.47 1712.02 23.2 1693.32 18.66 1692.36 84.45"/>
          <line class="cls-2" x1="1626.48" y1="48.82" x2="1626.48" y2="84.45"/>
          <line class="cls-2" x1="1655.89" y1="53.29" x2="1655.89" y2="84.45"/>
          <line class="cls-2" x1="1641.07" y1="32.49" x2="1641.07" y2="84.45"/>
          <polyline class="cls-2" points="1655.89 46.47 1655.89 23.2 1674.59 18.66 1675.55 84.45"/>
          <line class="cls-2" x1="1610.78" y1="23.73" x2="1610.78" y2="84.45"/>
          <line class="cls-2" x1="1581.37" y1="53.29" x2="1581.37" y2="84.45"/>
          <line class="cls-2" x1="1596.18" y1="38.35" x2="1596.18" y2="84.45"/>
          <polyline class="cls-2" points="1581.37 46.47 1581.37 23.2 1562.66 18.66 1561.71 84.45"/>
        </g>
        <g id="_Grid_Repeat_-8" data-name="&amp;lt;Grid Repeat&amp;gt;">
          <line class="cls-2" x1="1886.59" y1="48.82" x2="1886.59" y2="84.45"/>
          <line class="cls-2" x1="1870.88" y1="23.73" x2="1870.88" y2="84.45"/>
          <line class="cls-2" x1="1841.47" y1="53.29" x2="1841.47" y2="84.45"/>
          <line class="cls-2" x1="1856.29" y1="38.35" x2="1856.29" y2="84.45"/>
          <polyline class="cls-2" points="1841.47 46.47 1841.47 23.2 1822.77 18.66 1821.82 84.45"/>
        </g>
      </g>
    </g>
  </g>
</svg>